<?xml version="1.0" ?><!-- Uploaded to: SVG Repo, www.svgrepo.com, Generator: SVG Repo Mixer Tools -->
<svg stroke="white" fill="white" width="800px" height="800px" viewBox="0 0 24 24" data-name="Layer 1" id="Layer_1" xmlns="http://www.w3.org/2000/svg"><title/><path d="M18,2a3.57,3.57,0,0,0-2.71,1.29c-.49.49-.73.71-1.3.71s-.8-.22-1.29-.71a3.48,3.48,0,0,0-5.41,0C6.8,3.78,6.56,4,6,4s-.8-.22-1.29-.71A3.56,3.56,0,0,0,2,2V4c.56,0,.8.22,1.29.71A3.56,3.56,0,0,0,6,6,3.56,3.56,0,0,0,8.7,4.71C9.19,4.22,9.43,4,10,4s.8.22,1.29.71a3.48,3.48,0,0,0,5.42,0c.49-.49.73-.71,1.3-.71s.8.22,1.3.71A3.57,3.57,0,0,0,22,6V4c-.56,0-.8-.22-1.3-.71A3.57,3.57,0,0,0,18,2Z"/><path d="M18,7a3.57,3.57,0,0,0-2.71,1.29c-.49.49-.73.71-1.3.71s-.8-.22-1.29-.71a3.48,3.48,0,0,0-5.41,0C6.8,8.78,6.56,9,6,9s-.8-.22-1.29-.71A3.56,3.56,0,0,0,2,7V9c.56,0,.8.22,1.29.71A3.56,3.56,0,0,0,6,11,3.56,3.56,0,0,0,8.7,9.71C9.19,9.22,9.43,9,10,9s.8.22,1.29.71a3.48,3.48,0,0,0,5.42,0c.49-.49.73-.71,1.3-.71s.8.22,1.3.71A3.57,3.57,0,0,0,22,11V9c-.56,0-.8-.22-1.3-.71A3.57,3.57,0,0,0,18,7Z"/><path d="M18,13a3.57,3.57,0,0,0-2.71,1.29c-.49.49-.73.71-1.3.71s-.8-.22-1.29-.71a3.48,3.48,0,0,0-5.41,0C6.8,14.78,6.56,15,6,15s-.8-.22-1.29-.71A3.56,3.56,0,0,0,2,13v2c.56,0,.8.22,1.29.71A3.56,3.56,0,0,0,6,17,3.56,3.56,0,0,0,8.7,15.71c.49-.49.73-.71,1.29-.71s.8.22,1.29.71a3.48,3.48,0,0,0,5.42,0c.49-.49.73-.71,1.3-.71s.8.22,1.3.71A3.57,3.57,0,0,0,22,17V15c-.56,0-.8-.22-1.3-.71A3.57,3.57,0,0,0,18,13Z"/><path d="M18,18a3.57,3.57,0,0,0-2.71,1.29c-.49.49-.73.71-1.3.71s-.8-.22-1.29-.71a3.48,3.48,0,0,0-5.41,0C6.8,19.78,6.56,20,6,20s-.8-.22-1.29-.71A3.56,3.56,0,0,0,2,18v2c.56,0,.8.22,1.29.71A3.56,3.56,0,0,0,6,22,3.56,3.56,0,0,0,8.7,20.71c.49-.49.73-.71,1.29-.71s.8.22,1.29.71a3.48,3.48,0,0,0,5.42,0c.49-.49.73-.71,1.3-.71s.8.22,1.3.71A3.57,3.57,0,0,0,22,22V20c-.56,0-.8-.22-1.3-.71A3.57,3.57,0,0,0,18,18Z"/></svg>